<svg xmlns="http://www.w3.org/2000/svg" version="1.1" xmlns:xlink="http://www.w3.org/1999/xlink" xmlns:svgjs="http://svgjs.dev/svgjs" width="300" height="400" viewBox="0 0 1500 1687"><g transform="matrix(1,0,0,1,0.00011015625000254659,0)"><svg viewBox="0 0 320 360" data-background-color="#ffffff" preserveAspectRatio="xMidYMid meet" height="1687" width="1500" xmlns="http://www.w3.org/2000/svg" xmlns:xlink="http://www.w3.org/1999/xlink"><g id="tight-bounds" transform="matrix(1,0,0,1,0.000023499999997511622,0)"><svg viewBox="0 0 320 360" height="360" width="320"><g><svg></svg></g><g><svg viewBox="0 0 320 360" height="360" width="320"><g><path transform="translate(-74.99272,-51.79039) scale(4.65793,4.65793)" d="M20.6 59.9l0.8 1-0.4-1.3c-0.1-0.6-0.8 0.1-0.4 0.3M21.5 59.3c0.3 0.5 0.6 1 0.6 1.5 0 0.7 0.6 1 1.1 1.2-0.7-0.8-1.1-3-1.7-2.7M59.9 16.9c1.7 0 3.3-0.2 5.1 0.2 4.4 1.1 8.1 3.3 10.6 6.4l7 11.2c0.3 2.8 0.9 5.9 0.8 9.3 0.7 0 0.6-1 1.4-1.2-0.8 2-1.2 4.5-1.4 7.4-0.5-1.6 0-4 0.1-5.3-0.7 1.1-1.1 0.3-1.1-0.2 0.1-0.8-0.3-0.7-0.6-1-1.1-1-1.8-2.1-2.6-3.8 0.5-1.3 0.6-3.2-1-4.2-0.5-0.3-1.1-0.8-1.4-1.6-0.4-1.1-1.1-2.4-0.9-4.1 0.1-0.5-1.5 1.1-2.4 0.4-3.9-2.7-7.8-5.8-12.5-8.4-2.5 0-4.3-0.9-5.2-2-0.8-1-0.2-2.3 1-2.4 0.7 0 1.5-0.2 2.1 0.2 0.1-0.4 0.5-0.9 1-0.9M50 14.6l0.2 0.1c1 0.2 1.5 1.6 2.6 1.1 0 0.7 0.1 1.4-0.1 1.9-0.3 0.8-1.2 0.8-1.9 0.8-6.7-0.4-10.6 2.4-14.7 4.8-1.1 0.7-2.3 1.2-3.2 2.1-4.3 4-9 7.7-10.1 15.1l-0.9 8.2c-0.1 0.9-1.1 1.8-0.9 2.9l0.7 4.9c-0.7-0.7-1.1 0.2-0.9 0.6 0.1 0.3 0.5 1.3 1.1 0.4 0.8 1.5 1.6 4.4 2.7 5.7 3.4 4 7.8 7.6 11.4 11.2 0.9-0.2 1.6-0.2 1.8-0.8 0.3 0.6-0.3 1.2-0.8 1.3 1.6 1 3.4 1.9 5.8 2.1 3.1 0.2 6 0.7 8.7 1.4 1.4-0.4 2.8-0.6 4.3-0.7 0.5 0 0.8-0.8 1.4-1l0.1-1c0.6 0.9 0.5-0.3 0.1-0.9 0.7 0.6 0.9 1.1 1.2 1.5 0-0.3 0.8-1.4 0.8-0.1l0.2-1.3c0.3-0.2 0.4 1.1 0.7 0.2 0.3-0.9 0.9-0.2 1.5-0.5-0.2 0.4-0.1 1.2 0.6 0.7l0.8-0.7c0.5 1.2 1.3 0.7 1.7 0.5 4.4-2.8 8.8-6.1 13-9.4l-0.1 1.3 0.5-1.6c0.5 0.5 0.9 0.1 1.1-0.2 0.6-1 1.4-2 2.7-2.9-1.6 4.3-3.5 7.7-5.9 10.5l-1 1.2c0 0.7-0.2 1.6-1 1.7-0.4 0.1-1.2-0.2-1.8 0.4-0.3 0.4 0.7 1.2-0.1 0.6-0.7-0.5-1.4 0-2.2 0.2-0.6 0.2 0.4 0.8 0.6 1.2 0.2 0.4 0.4 0.8 0.3 1.3l-1.1-1.2c-1.3 0.7-2.1 2-3.2 3-0.5 0.4-0.3 1.1-0.3 1.7-0.7 0-1.5-0.2-1.9 0.2-0.3 0.4-0.2 1-0.2 1.6-1-0.1-1.1-1.6-2-1.3-0.9 0.2-1.9 0.3-2.7 0.8 0.6 1.2-1 0.5-0.8 0.7-1.5-0.9-2.8-1.6-4.4-1-3.4-1.1-7.6-0.6-10.7-0.2 0-0.5 0.1-1-0.1-1.1-0.2 0.5-0.8 0.3-0.7 0.3-1.9-1.3-3.8-2.1-5.8-3.2-1.8 0.2-3.5-0.7-4-1.2-1.4-1.3-3-0.6-4.3-0.9-2.8-0.7-3.8-3.6-4.1-5.6-0.2-1-1-1.4-1.3-1.3-1.3-4.2-3.3-8-4.9-11.9-0.4-1-0.3-2-0.3-3.1 0.5 0.2 1 0.1 0.9-0.6-0.5-3.3-1.7-5.8-3-8.2 0.7-3.4 0.8-7.4 2.4-10.4 1.4-2.7 4-4.1 5.8-6.4 0.6-0.8 0.6-1.9 1.2-2.6 2-2 4-4.1 6.2-5.9 1-0.8 2.2 0 3.7-0.3 0.5-1.8 2.5-3.4 4.4-2.9 0.8 0.2 2.4-1.9 2.9-2.1 0.8-0.3 0.4 0.8 0.4 1.5 1.9-1.5 4.5-2.3 6.9-3.2" fill="#8b3c7f" fill-rule="nonzero" stroke="none" stroke-width="1" stroke-linecap="butt" stroke-linejoin="miter" stroke-miterlimit="10" stroke-dasharray="" stroke-dashoffset="0" font-family="none" font-weight="none" font-size="none" text-anchor="none" style="mix-blend-mode: normal" data-fill-palette-color="tertiary"></path></g><g transform="matrix(1,0,0,1,64,108.99699747117295)"><svg viewBox="0 0 192 142.0060050576541" height="142.0060050576541" width="192"><g><svg viewBox="0 0 192 142.0060050576541" height="142.0060050576541" width="192"><g><svg viewBox="0 0 192 142.0060050576541" height="142.0060050576541" width="192"><g transform="matrix(1,0,0,1,0,85.83105475944336)"><svg viewBox="0 0 192 56.174950298210746" height="56.174950298210746" width="192"><g id="textblocktransform"><svg viewBox="0 0 192 56.174950298210746" height="56.174950298210746" width="192" id="textblock"><g><svg viewBox="0 0 192 56.174950298210746" height="56.174950298210746" width="192"><g transform="matrix(1,0,0,1,0,0)"><svg width="192" viewBox="1 -43.7 150.89 44.150000000000006" height="56.174950298210746" data-palette-color="#8b3c7f"><path d="M13.15-37Q20.1-37 20.1-29.1L20.1-29.1Q20.1-27.3 18.25-27.3L18.25-27.3Q16.3-27.3 16.3-29L16.3-29Q16.3-31.25 15.7-32.5 15.1-33.75 13.2-33.75L13.2-33.75Q11.05-33.75 10.23-31.95 9.4-30.15 9.4-26.5L9.4-26.5Q9.4-22.65 9.45-20.25L9.45-20.25 13.4-20.25Q14.1-20.25 14.5-19.83 14.9-19.4 14.9-18.6L14.9-18.6Q14.9-17.25 13.4-17.2L13.4-17.2 9.5-17.1Q9.6-7.7 9.6-1.7L9.6-1.7Q9.6-0.8 9.08-0.4 8.55 0 7.75 0L7.75 0Q6.85 0 6.4-0.45 5.95-0.9 5.95-1.65L5.95-1.65Q5.95-6.25 5.75-14.25L5.75-14.25 5.7-17 2.7-16.95Q1.8-16.95 1.4-17.35 1-17.75 1-18.55L1-18.55Q1-19.25 1.35-19.65 1.7-20.05 2.65-20.1L2.65-20.1 5.65-20.15Q5.55-25.05 5.55-26.55L5.55-26.55Q5.55-31.35 7.43-34.18 9.3-37 13.15-37L13.15-37ZM46.25-3.25Q46.95-3.15 47.3-2.85 47.65-2.55 47.65-1.75L47.65-1.75Q47.65-1 47.27-0.55 46.9-0.1 46.25-0.1L46.25-0.1Q44.2-0.1 43.22-0.75 42.25-1.4 41.55-3.2L41.55-3.2Q39.3 0.45 33.55 0.45L33.55 0.45Q29.5 0.45 27-1.35 24.5-3.15 23.42-5.93 22.35-8.7 22.35-11.8L22.35-11.8Q22.35-15.15 23.7-18.1 25.05-21.05 27.67-22.85 30.3-24.65 33.95-24.65L33.95-24.65Q36.45-24.65 38.3-23.65 40.15-22.65 41.2-20.85L41.2-20.85 41.4-22.5Q41.5-24.35 43.1-24.35L43.1-24.35Q44.1-24.35 44.62-23.88 45.15-23.4 45.05-22.75L45.05-22.75 44.9-21.5Q44.55-19.4 44.4-17.15L44.4-17.15Q44.25-15.25 44.25-12.05L44.25-12.05 44.25-8.6Q44.25-6.45 44.37-5.43 44.5-4.4 44.9-3.85 45.3-3.3 46.25-3.25L46.25-3.25ZM40.45-8.65Q40.5-11 40.5-14.7L40.5-14.7Q40.5-17.15 39.45-18.68 38.4-20.2 36.9-20.85 35.4-21.5 34.05-21.5L34.05-21.5Q31.4-21.5 29.62-20 27.85-18.5 27.02-16.25 26.2-14 26.2-11.8L26.2-11.8Q26.2-8.3 27.92-5.53 29.65-2.75 33.6-2.75L33.6-2.75Q36.55-2.75 38.47-4.28 40.4-5.8 40.45-8.65L40.45-8.65ZM65.9-25.7Q69.09-25.7 70.9-23.68 72.7-21.65 72.7-18.75L72.7-18.75Q72.7-16 71.05-14.43 69.4-12.85 66.8-12.85L66.8-12.85Q65.8-12.85 65.37-13.15 64.95-13.45 64.95-14.25L64.95-14.25Q64.95-15.55 66.2-15.6L66.2-15.6Q69.45-15.9 69.45-18.8L69.45-18.8Q69.45-20.35 68.59-21.45 67.75-22.55 65.84-22.55L65.84-22.55Q63.85-22.55 62.37-20.85 60.9-19.15 60.05-16.63 59.2-14.1 59.05-11.65L59.05-11.65Q58.75-7.05 58.75-2.95L58.75-2.95Q58.75-0.9 58.37-0.25 58 0.4 56.9 0.4L56.9 0.4Q55.8 0.4 55.37-0.13 54.95-0.65 54.95-1.95L54.95-1.95 54.9-11.5Q54.9-14.8 54.4-20.2L54.4-20.2Q54.1-23.35 54.05-24.7L54.05-24.7Q54-25.5 54.5-25.93 55-26.35 55.9-26.35L55.9-26.35Q57.45-26.35 57.55-24.85L57.55-24.85Q57.85-21.7 57.9-18.7L57.9-18.7Q58.75-22 60.85-23.85 62.95-25.7 65.9-25.7L65.9-25.7ZM84.09-28.3Q82.79-28.3 81.89-29.18 80.99-30.05 80.99-31.4L80.99-31.4Q80.99-32.75 81.89-33.63 82.79-34.5 84.19-34.5L84.19-34.5Q85.54-34.5 86.42-33.65 87.29-32.8 87.29-31.45L87.29-31.45Q87.29-30.1 86.37-29.2 85.44-28.3 84.09-28.3L84.09-28.3ZM83.34-0.3Q82.44-0.3 81.92-0.75 81.39-1.2 81.39-1.95L81.39-1.95 81.89-23.2Q81.89-24.05 82.42-24.5 82.94-24.95 83.84-24.95L83.84-24.95Q84.74-24.95 85.27-24.5 85.79-24.05 85.79-23.15L85.79-23.15 85.29-1.95Q85.24-1.15 84.72-0.73 84.19-0.3 83.34-0.3L83.34-0.3ZM106.99 0.2Q102.89 0.2 99.92-1.58 96.94-3.35 95.42-6.28 93.89-9.2 93.89-12.65L93.89-12.65Q93.89-16.2 95.49-19.18 97.09-22.15 100.04-23.9 102.99-25.65 106.84-25.65L106.84-25.65Q110.24-25.65 112.94-24.28 115.64-22.9 117.14-20.45 118.64-18 118.64-14.85L118.64-14.85Q118.64-13.35 118.29-12.73 117.94-12.1 116.54-12.05L116.54-12.05 97.49-11.65Q97.49-9.75 98.64-7.75 99.79-5.75 101.92-4.4 104.04-3.05 106.84-3.05L106.84-3.05Q108.94-3.05 110.44-3.68 111.94-4.3 112.79-5.1 113.64-5.9 114.84-7.35L114.84-7.35Q115.19-7.8 115.94-7.8L115.94-7.8Q116.59-7.8 117.17-7.3 117.74-6.8 117.74-6.15L117.74-6.15Q117.74-5.65 117.34-5.1L117.34-5.1Q115.74-2.9 113.47-1.35 111.19 0.2 106.99 0.2L106.99 0.2ZM97.49-14.65L114.89-15.1Q115.39-15.1 115.39-15.8L115.39-15.8Q115.39-18.8 112.99-20.68 110.59-22.55 106.94-22.55L106.94-22.55Q104.19-22.55 102.04-21.15 99.89-19.75 98.69-17.85 97.49-15.95 97.49-14.65L97.49-14.65ZM137.59 0.2Q134.09 0.2 131.19-1.2 128.29-2.6 126.54-5.5 124.79-8.4 124.79-12.7L124.79-12.7Q124.79-16.6 126.39-19.45 127.99-22.3 130.91-23.83 133.84-25.35 137.74-25.35L137.74-25.35Q140.54-25.35 142.66-24.53 144.79-23.7 146.04-22.4L146.04-22.4 146.04-23.45Q146.24-31.3 146.36-34.9 146.49-38.5 146.84-42.1L146.84-42.1Q146.94-42.8 147.44-43.25 147.94-43.7 148.74-43.7L148.74-43.7Q149.64-43.7 150.19-43.23 150.74-42.75 150.69-42L150.69-42Q150.34-38.35 150.04-29.45 149.74-20.55 149.74-13.4L149.74-13.4Q149.74-6.1 150.09-5L150.09-5Q150.39-3.9 150.81-3.18 151.24-2.45 151.74-2.45L151.74-2.45Q151.89-2.45 151.89-1.9L151.89-1.9Q151.89-1.15 151.24-0.55 150.59 0.05 149.79 0.05L149.79 0.05Q149.24 0.05 148.84-0.2L148.84-0.2Q148.14-0.6 147.41-1.53 146.69-2.45 146.44-4.1L146.44-4.1Q145.19-2.1 142.84-0.95 140.49 0.2 137.59 0.2L137.59 0.2ZM137.49-3.2Q139.64-3.2 141.56-4.13 143.49-5.05 144.69-6.63 145.89-8.2 145.89-10.05L145.89-10.05Q145.89-12.25 145.94-13.55L145.94-13.55 145.99-17.7Q145.14-19.3 142.89-20.65 140.64-22 137.74-22L137.74-22Q133.59-22 131.09-19.5 128.59-17 128.59-12.55L128.59-12.55Q128.59-9.35 129.91-7.25 131.24-5.15 133.29-4.17 135.34-3.2 137.49-3.2L137.49-3.2Z" opacity="1" transform="matrix(1,0,0,1,0,0)" fill="#8b3c7f" class="wordmark-text-0" data-fill-palette-color="primary" id="text-0"></path></svg></g></svg></g></svg></g></svg></g><g transform="matrix(1,0,0,1,69.1916706918671,0)"><svg viewBox="0 0 53.61665861626579 77.63378131212725" height="77.63378131212725" width="53.61665861626579"><g><svg xmlns="http://www.w3.org/2000/svg" xmlns:xlink="http://www.w3.org/1999/xlink" version="1.1" x="0" y="0" viewBox="26.027 15.289 47.94600015876807 69.42299999999999" enable-background="new 0 0 100 100" xml:space="preserve" height="77.63378131212725" width="53.61665861626579" class="icon-icon-0" data-fill-palette-color="accent" id="icon-0"><g fill="#8b3c7f" data-fill-palette-color="accent"><path fill="#8b3c7f" d="M36.554 15.289c-5.805 0-10.527 4.723-10.527 10.528 0 5.805 4.723 10.527 10.527 10.527s10.527-4.723 10.527-10.527C47.081 20.011 42.358 15.289 36.554 15.289z" data-fill-palette-color="accent"></path><path fill="#8b3c7f" d="M36.554 43.081c-5.805 0-10.527 4.723-10.527 10.528 0 5.805 4.723 10.527 10.527 10.527s10.527-4.723 10.527-10.527C47.081 47.803 42.358 43.081 36.554 43.081z" data-fill-palette-color="accent"></path><path fill="#8b3c7f" d="M63.446 15.289c-5.806 0-10.528 4.723-10.528 10.528 0 5.805 4.723 10.527 10.528 10.527 5.805 0 10.527-4.723 10.527-10.527C73.974 20.011 69.251 15.289 63.446 15.289z" data-fill-palette-color="accent"></path><path fill="#8b3c7f" d="M63.445 47.83c-2.603 0-4.721 2.117-4.721 4.72 0 2.604 2.118 4.722 4.721 4.722s4.721-2.118 4.721-4.722C68.166 49.947 66.048 47.83 63.445 47.83z" data-fill-palette-color="accent"></path><path fill="#8b3c7f" d="M63.445 74.212c-2.603 0-4.721 2.117-4.721 4.72 0 2.604 2.118 4.722 4.721 4.722s4.721-2.118 4.721-4.722C68.166 76.33 66.048 74.212 63.445 74.212z" data-fill-palette-color="accent"></path><path fill="#8b3c7f" d="M36.554 75.27c-2.603 0-4.721 2.117-4.721 4.72 0 2.604 2.118 4.722 4.721 4.722s4.721-2.118 4.721-4.722C41.274 77.387 39.156 75.27 36.554 75.27z" data-fill-palette-color="accent"></path></g></svg></g></svg></g><g></g></svg></g></svg></g></svg></g></svg></g><defs></defs></svg><rect width="320" height="360" fill="none" stroke="none" visibility="hidden"></rect></g></svg></g></svg>